<svg width="1512" height="386" viewBox="0 0 1512 386" fill="none" xmlns="http://www.w3.org/2000/svg">
<g opacity="0.4">
<path d="M605.959 227.495C428.537 294.863 225.792 328.998 153.116 303.738C80.4398 278.478 165.354 203.389 342.776 136.021C520.198 68.6537 722.943 34.5186 795.619 59.7785C868.295 85.0383 783.381 160.128 605.959 227.495Z" fill="#E0848D"/>
<path d="M1431.03 5.68897C1316.58 23.0721 848.844 171.878 506.04 149.232C163.237 126.586 870.859 432.164 1176.74 377.378C1480.08 323.049 1545.49 -11.7024 1431.03 5.68897Z" fill="#6E6EE7"/>
<path d="M411.606 252.204C457.082 245.71 643.078 189.8 779.141 198.568C915.204 207.336 634.837 91.4794 513.286 111.98C392.741 132.309 366.131 258.701 411.606 252.204Z" fill="#7A2CC9"/>
</g>
</svg>
