<svg width="683" height="595" viewBox="0 0 683 595" fill="none" xmlns="http://www.w3.org/2000/svg">
<path d="M303.764 320.918C214.521 420.553 112.639 470.992 76.2052 433.578C39.7714 396.164 82.5823 285.064 171.826 185.43C261.07 85.7952 362.951 35.3558 399.385 72.77C435.819 110.184 393.008 221.284 303.764 320.918Z" fill="#E0848D"/>
<path d="M644.496 31.42C590.068 57.148 367.635 277.39 204.615 243.872C41.5941 210.354 378.104 662.627 523.566 581.541C667.822 501.131 698.924 5.67979 644.496 31.42Z" fill="#6E6EE7"/>
<path d="M393.733 122.323C372.108 132.024 283.675 215.143 218.967 202.436C154.26 189.729 287.623 360.647 345.421 330.064C402.74 299.736 415.357 112.617 393.733 122.323Z" fill="#7A2CC9"/>
</svg>
